<svg width="40" height="40" viewBox="0 0 40 40" fill="none" xmlns="http://www.w3.org/2000/svg">
<g clip-path="url(#clip0_85_1122)">
<mask id="mask0_85_1122" style="mask-type:luminance" maskUnits="userSpaceOnUse" x="-1" y="0" width="41" height="41">
<path d="M-0.00634766 0H39.9975V40.0038H0.00326157L-0.00634766 0Z" fill="white"/>
</mask>
<g mask="url(#mask0_85_1122)">
<path fill-rule="evenodd" clip-rule="evenodd" d="M-10 0H50.0586V40.0038H-10V0Z" fill="#FF0000"/>
<path fill-rule="evenodd" clip-rule="evenodd" d="M8.23861 20.4007C9.30525 19.1035 11.5154 20.3719 13.322 19.4398C11.1791 19.5551 10.0163 18.4116 8.3251 18.5749C10.074 17.4987 11.5635 18.9209 13.5238 18.3443C10.9292 18.1329 11.0446 16.9702 8.69025 16.8068C10.7851 15.9131 11.8133 17.7293 13.8697 17.3161C11.4481 16.7588 11.131 15.3366 9.33408 15.0291C11.9574 14.6351 11.7845 16.1822 14.3598 16.3744C11.746 15.2597 12.4379 14.2795 10.247 13.4339C12.6974 13.3763 12.534 15.0675 15.0036 15.5095C12.8896 14.1642 13.149 12.9342 11.4001 11.9733C13.4757 12.0117 13.6775 14.1354 15.7916 14.7888C13.9081 13.2994 14.3982 12.031 12.7742 10.6952C14.8306 11.1757 14.5328 13.0111 16.6756 14.1738C15.0901 12.4153 15.6955 11.1469 14.3117 9.69587C16.2913 10.3397 15.5417 12.079 17.5981 13.7318C16.4162 11.7907 17.1465 10.5511 15.9838 8.9079C17.8288 9.86884 16.9351 11.637 18.6456 13.4051C17.8384 11.416 18.6456 10.1763 17.8192 8.40822C19.3951 9.59017 18.463 11.4832 19.7314 13.2994C19.2702 10.801 20.3464 10.3877 20.0101 8.20642C21.2017 9.67666 19.866 11.1469 20.7788 13.2994C20.6828 10.849 21.98 10.2724 21.7494 8.30251C22.941 10.0706 21.0863 11.6081 21.8647 13.5012C22.0569 11.1661 23.5944 10.5703 23.6232 8.75415C24.5553 10.4166 22.5181 11.6177 22.8545 13.8279C23.5175 11.3871 25.1511 11.0892 25.3529 9.44603C25.9103 11.3679 23.6809 12.2712 23.8154 14.4045C24.4785 12.2424 26.5156 11.9829 26.9385 10.3877C27.1883 12.4249 25.1799 12.7901 24.6226 15.0387C25.6796 13.2129 27.5246 13.0495 28.351 11.5985C28.2838 13.6165 26.016 13.876 25.3241 15.769C26.631 14.1642 28.2645 14.4429 29.5714 13.0207C29.4369 14.8465 27.1306 14.7408 25.9006 16.6242C27.3228 15.3174 29.4561 15.7113 30.542 14.587C30.4843 16.1918 27.6592 16.0765 26.3138 17.5083C27.9667 16.6146 30.0519 17.1431 31.2627 16.2975C31.032 17.7101 28.0531 17.393 26.6117 18.4885C28.5817 17.9407 30.0999 18.7767 31.7047 18.1713C30.9263 19.5455 28.2165 18.6806 26.7751 19.5743C28.4856 19.286 30.3017 20.3142 31.8585 19.9875C31.3492 21.1695 28.3799 19.9106 26.7655 20.6602C28.6874 20.6313 29.9366 21.8613 31.7047 21.7749C30.7438 22.8511 28.13 21.3713 26.6117 21.6211C28.4663 22.0055 29.8789 23.543 31.2915 23.6199C30.1384 24.5039 27.9763 22.486 26.2178 22.7454C28.0243 23.2259 29.5426 25.2823 30.5804 25.3303C29.4657 26.0991 27.2556 23.5718 25.7469 23.6583C27.5727 24.4943 28.4183 26.5892 29.6291 26.887C28.1396 27.3675 26.6694 24.6096 25.0646 24.5135C26.9192 25.6859 27.0249 27.4732 28.4567 28.2612C26.9577 28.6456 25.8814 25.5225 24.2959 25.2631C25.8238 26.3777 26.0448 28.7705 27.0634 29.5296C25.5259 29.6065 24.9781 26.3489 23.4118 25.8781C24.7571 27.0024 24.4304 29.4335 25.4682 30.481C23.8827 30.1542 24.0845 27.3099 22.422 26.3489C23.6136 27.8672 22.9986 30.0101 23.7866 31.2209C22.2299 30.5963 22.9121 28.0498 21.4227 26.6084C22.2299 28.2227 21.365 30.0966 21.9992 31.6533C20.5867 30.9614 21.538 27.9537 20.4521 26.7525C20.9518 28.6167 20.0293 30.1542 20.4041 31.8167C18.9531 30.135 20.6251 28.4534 19.3663 26.7237C19.693 28.7032 18.3188 30.0678 18.5399 31.7206C17.3867 30.3753 19.1549 28.2131 18.2612 26.5219C18.4534 28.4534 16.6756 30.1446 16.8006 31.365C15.8685 29.8083 17.8384 27.9633 17.3099 26.1856C17.1946 28.0306 15.4072 29.0299 15.0709 30.702C14.4655 28.857 16.5988 27.5213 16.4162 25.7051C15.8012 27.4348 14.0715 28.1267 13.4565 29.7987C12.9568 27.9537 15.4841 26.9735 15.5513 25.0324C14.773 26.8582 12.6974 27.2522 12.0151 28.6456C11.7556 26.8198 14.6577 25.9934 14.7634 24.2541C13.8313 25.9261 11.5635 25.9838 10.7755 27.3195C10.6602 25.4937 13.716 25.2631 14.1964 23.3508C13.2643 24.773 10.7755 24.6 9.74729 25.7531C9.91064 24.0523 13.2067 23.9466 13.7352 22.4283C12.5052 23.6102 10.2278 23.1202 8.93049 24.0619C9.65119 22.3899 12.755 22.7454 13.4469 21.5346C12.0824 22.2553 9.65119 21.5635 8.45002 22.2745C9.54549 20.6986 11.9574 21.6403 13.322 20.5449C11.1022 20.8716 9.7665 19.9875 8.229 20.4007H8.23861Z" fill="#FFFF00"/>
<path fill-rule="evenodd" clip-rule="evenodd" d="M27.8031 20.0067C27.8397 21.0474 27.6664 22.0849 27.2934 23.0571C26.9205 24.0294 26.3555 24.9166 25.6322 25.6658C24.9089 26.4149 24.0422 27.0108 23.0837 27.4177C22.1251 27.8247 21.0945 28.0344 20.0531 28.0344C19.0118 28.0344 17.9811 27.8247 17.0225 27.4177C16.064 27.0108 15.1973 26.4149 14.474 25.6658C13.7507 24.9166 13.1858 24.0294 12.8128 23.0571C12.4398 22.0849 12.2665 21.0474 12.3031 20.0067C12.3739 17.9985 13.2213 16.0962 14.667 14.7006C16.1127 13.3049 18.0437 12.5249 20.0531 12.5249C22.0625 12.5249 23.9935 13.3049 25.4392 14.7006C26.8849 16.0962 27.7323 17.9985 27.8031 20.0067Z" fill="#FFFF00"/>
<path fill-rule="evenodd" clip-rule="evenodd" d="M26.8039 20.0259C26.8039 20.9106 26.6296 21.7865 26.2911 22.6038C25.9526 23.421 25.4564 24.1636 24.8309 24.7891C24.2054 25.4147 23.4628 25.9108 22.6455 26.2494C21.8283 26.5879 20.9523 26.7621 20.0677 26.7621C19.1831 26.7621 18.3072 26.5879 17.4899 26.2494C16.6726 25.9108 15.93 25.4147 15.3045 24.7891C14.679 24.1636 14.1828 23.421 13.8443 22.6038C13.5058 21.7865 13.3315 20.9106 13.3315 20.0259C13.3315 18.2381 14.0418 16.5235 15.3059 15.2594C16.5701 13.9952 18.2847 13.285 20.0725 13.285C21.8603 13.285 23.5749 13.9952 24.8391 15.2594C26.1033 16.5235 26.8135 18.2381 26.8135 20.0259H26.8039Z" fill="#FF0000"/>
<path fill-rule="evenodd" clip-rule="evenodd" d="M25.8718 20.0356C25.8718 21.5711 25.2618 23.0437 24.176 24.1295C23.0903 25.2152 21.6176 25.8252 20.0821 25.8252C18.5466 25.8252 17.074 25.2152 15.9882 24.1295C14.9025 23.0437 14.2925 21.5711 14.2925 20.0356C14.2925 18.5 14.9025 17.0274 15.9882 15.9417C17.074 14.8559 18.5466 14.2459 20.0821 14.2459C21.6176 14.2459 23.0903 14.8559 24.176 15.9417C25.2618 17.0274 25.8718 18.5 25.8718 20.0356Z" fill="#FFFF00"/>
<path fill-rule="evenodd" clip-rule="evenodd" d="M15.1572 16.2398C16.762 16.211 18.7511 16.3551 20.0676 17.4122C21.4778 16.5295 23.1389 16.1345 24.7954 16.2879L25.6603 17.8638C24.4111 17.7389 23.1907 17.9119 21.7493 18.498C22.6254 19.1444 23.3296 19.9957 23.8004 20.9774C24.2711 21.9591 24.494 23.0413 24.4495 24.1291C24.2381 24.3982 23.9114 24.6865 23.7 24.9459C24.0075 22.7262 22.8351 20.2373 21.1246 18.9305C22.5084 20.9388 23.3348 22.7358 23.1042 25.2246L22.3162 25.7147C22.6814 23.5237 22.1721 20.958 20.5481 19.4686C21.1685 20.3858 21.6016 21.4165 21.8226 22.5016C22.0436 23.5867 22.048 24.7047 21.8357 25.7916C21.5859 25.8684 21.2015 26.0798 20.9421 26.1567C21.2486 25.1307 21.3318 24.0509 21.1859 22.99C21.04 21.9292 20.6685 20.9119 20.0964 20.0067C19.5351 20.9058 19.1719 21.9143 19.0311 22.9648C18.8902 24.0153 18.975 25.0838 19.2796 26.0991L18.4532 25.8588C18.0112 23.5045 18.6262 20.8619 19.6929 19.4782C18.607 20.1124 17.5788 22.8126 17.8671 25.5705L17.1368 25.2342C16.7812 23.1778 17.7133 20.4968 19.0586 18.9497C17.5404 19.9106 16.3007 22.2553 16.5218 24.7826C16.2911 24.5808 16.0701 24.4751 15.8395 24.2733C15.5704 22.0631 16.8485 19.8433 18.3379 18.5076C17.107 17.9863 15.7697 17.7656 14.4365 17.8638C14.6768 17.3545 14.917 16.7587 15.1572 16.2494V16.2398Z" fill="#FF0000"/>
</g>
</g>
<defs>
<clipPath id="clip0_85_1122">
<rect width="40" height="40" rx="6" fill="white"/>
</clipPath>
</defs>
</svg>
